# xmcd
#
# Track frame offsets: 
#        150
#        17733
#        38630
#        58455
#        99033
#        114918
#        139183
#        157645
#        178890
#        215180
#
# Disc length: 3251 seconds
#
# Revision: 0
# Processed by: cddbd v1.5.2PL0 Copyright (c) Steve Scherf et al.
# Submitted via: ExactAudioCopy v0.99pb3
#
DISCID=820cb10a
DTITLE=Ernie Williams and The Wildcats - Sun Goin' Down
DYEAR=1993
DGENRE=Blues
TTITLE0=Who's Gonna Love You
TTITLE1=World I Used To Know
TTITLE2=South of Memphis
TTITLE3=Lonely Man
TTITLE4=Trouble
TTITLE5=Good Old Days
TTITLE6=Where'd You Stay Last Night
TTITLE7=House Was Gone
TTITLE8=Love a Woman So Bad
TTITLE9=Sun Goin' Down
EXTD=
EXTT0=
EXTT1=
EXTT2=
EXTT3=
EXTT4=
EXTT5=
EXTT6=
EXTT7=
EXTT8=
EXTT9=
PLAYORDER=
